<svg version="1.1" id="Layer_1" xmlns="http://www.w3.org/2000/svg" xmlns:xlink="http://www.w3.org/1999/xlink" x="0px" y="0px"
	 width="100%" viewBox="0 0 50 50" enable-background="new 0 0 50 50" xml:space="preserve">
<path fill="#FFFFFF" opacity="1.000000" stroke="none" 
	d="
M28.000162,51.000000 
	C18.666779,51.000000 9.833448,51.000000 1.000090,51.000000 
	C1.000060,34.333382 1.000060,17.666761 1.000030,1.000108 
	C17.666611,1.000072 34.333221,1.000072 50.999874,1.000036 
	C50.999916,17.666603 50.999916,34.333206 50.999958,50.999905 
	C43.500072,51.000000 36.000145,51.000000 28.000162,51.000000 
M11.060476,21.478235 
	C11.090748,21.661976 11.121018,21.845715 10.650398,22.708185 
	C8.125246,22.926342 5.600093,23.144497 2.999275,23.369192 
	C4.063522,29.877565 5.110828,35.809517 5.977698,41.767719 
	C6.467956,45.137375 7.705605,47.130932 11.611138,47.050880 
	C20.246008,46.873894 28.899641,46.753571 37.521824,47.140438 
	C42.646694,47.370384 44.218613,44.494789 44.927059,40.470764 
	C45.493664,37.252415 45.635353,33.961151 46.031185,30.710228 
	C46.330757,28.249889 46.733704,25.802139 47.030754,23.760450 
	C42.632660,22.974575 39.125725,22.347935 36.311134,21.216743 
	C36.367069,16.027327 33.439857,18.293036 30.357019,18.734886 
	C29.282684,18.629353 28.208351,18.523817 26.540596,17.938128 
	C27.089586,16.478226 27.372850,14.831801 28.240568,13.595630 
	C30.314262,10.641397 30.260984,7.744651 27.220375,6.085847 
	C25.804232,5.313272 22.115408,5.963736 21.507242,7.083158 
	C20.547882,8.849003 21.140026,11.575523 21.417095,13.853852 
	C21.601179,15.367561 22.380825,16.808842 22.125570,18.307650 
	C20.837154,18.284557 19.548738,18.261467 17.569847,18.166727 
	C17.043047,18.794039 16.516247,19.421352 15.220234,20.008396 
	C13.861850,20.314274 12.503465,20.620150 11.060476,21.478235 
z"/>
<path fill="#7F7F7F" opacity="1.000000" stroke="none" 
	d="
M22.893888,18.282543 
	C22.380825,16.808842 21.601179,15.367561 21.417095,13.853852 
	C21.140026,11.575523 20.547882,8.849003 21.507242,7.083158 
	C22.115408,5.963736 25.804232,5.313272 27.220375,6.085847 
	C30.260984,7.744651 30.314262,10.641397 28.240568,13.595630 
	C27.372850,14.831801 27.089586,16.478226 26.802998,18.523951 
	C28.493441,19.942205 29.921482,20.774637 31.675404,21.665226 
	C33.207119,21.722687 34.412956,21.721991 35.618793,21.721296 
	C39.125725,22.347935 42.632660,22.974575 47.030754,23.760450 
	C46.733704,25.802139 46.330757,28.249889 46.031185,30.710228 
	C45.635353,33.961151 45.493664,37.252415 44.927059,40.470764 
	C44.218613,44.494789 42.646694,47.370384 37.521824,47.140438 
	C28.899641,46.753571 20.246008,46.873894 11.611138,47.050880 
	C7.705605,47.130932 6.467956,45.137375 5.977698,41.767719 
	C5.110828,35.809517 4.063522,29.877565 2.999275,23.369192 
	C5.600093,23.144497 8.125246,22.926342 11.304502,22.357086 
	C13.314967,21.961596 14.671329,21.917204 16.300037,21.915594 
	C16.939241,21.936443 17.306099,21.914509 18.087631,21.924679 
	C19.958607,21.647646 21.414906,21.338509 22.913298,20.685486 
	C22.934891,19.655247 22.914391,18.968895 22.893888,18.282543 
M22.449520,25.379059 
	C20.826483,25.298777 19.203444,25.218494 17.054590,25.165838 
	C16.657993,25.456915 16.261396,25.747992 15.087170,26.006327 
	C14.052421,26.051607 13.017673,26.096888 11.311146,25.802456 
	C9.761450,25.623596 8.211754,25.444736 5.651039,25.149187 
	C7.299087,32.137604 8.680264,37.994373 10.500654,44.496067 
	C12.996716,44.376545 15.492778,44.257023 18.825462,44.172150 
	C20.220652,44.160629 21.615843,44.149105 23.545876,44.663410 
	C25.688217,44.470516 27.830557,44.277622 30.892883,44.157406 
	C33.384838,44.159439 35.893688,44.332355 38.361332,44.088448 
	C39.523502,43.973579 41.457123,43.212833 41.590427,42.480629 
	C42.627422,36.784710 43.310745,31.024401 44.214100,24.482384 
	C41.214317,25.133871 39.187290,25.574099 36.699020,25.379438 
	C35.144779,25.337385 33.590534,25.295332 31.306761,25.159246 
	C31.063135,25.186018 30.819510,25.212790 29.878305,25.115526 
	C28.256973,26.119776 26.635643,27.124025 24.563908,27.948858 
	C24.563908,27.948858 24.088541,27.854612 23.901308,27.444059 
	C23.692146,27.205147 23.429461,27.071205 23.002548,26.535099 
	C22.964642,26.366655 22.926735,26.198210 22.449520,25.379059 
z"/>
<path fill="#FF2C2C" opacity="1.000000" stroke="none" 
	d="
M35.964966,21.469021 
	C34.412956,21.721991 33.207119,21.722687 31.642477,21.412769 
	C31.217779,20.443411 31.151884,19.784664 31.085989,19.125919 
	C33.439857,18.293036 36.367069,16.027327 35.964966,21.469021 
z"/>
<path fill="#3A9DDB" opacity="1.000000" stroke="none" 
	d="
M22.509729,18.295097 
	C22.914391,18.968895 22.934891,19.655247 22.502716,20.679585 
	C20.665777,21.023491 19.281513,21.029408 17.819237,20.679989 
	C17.914257,19.629227 18.087290,18.933802 18.260323,18.238375 
	C19.548738,18.261467 20.837154,18.284557 22.509729,18.295097 
z"/>
<path fill="#FFCE2E" opacity="1.000000" stroke="none" 
	d="
M30.721504,18.930403 
	C31.151884,19.784664 31.217779,20.443411 31.316599,21.354612 
	C29.921482,20.774637 28.493441,19.942205 27.099707,18.764029 
	C28.208351,18.523817 29.282684,18.629353 30.721504,18.930403 
z"/>
<path fill="#F9E7D2" opacity="1.000000" stroke="none" 
	d="
M17.915085,18.202551 
	C18.087290,18.933802 17.914257,19.629227 17.763927,20.894505 
	C17.786633,21.464355 17.672955,21.892576 17.672955,21.892576 
	C17.306099,21.914509 16.939241,21.936443 16.274467,21.675444 
	C15.976549,21.392511 15.879439,20.917397 15.931864,20.703369 
	C15.984288,20.489342 15.989448,20.048664 15.989448,20.048664 
	C16.516247,19.421352 17.043047,18.794039 17.915085,18.202551 
z"/>
<path fill="#E38A17" opacity="1.000000" stroke="none" 
	d="
M15.604841,20.028530 
	C15.989448,20.048664 15.984288,20.489342 15.539320,20.735043 
	C13.777928,20.962507 12.461505,20.944267 11.145081,20.926027 
	C12.503465,20.620150 13.861850,20.314274 15.604841,20.028530 
z"/>
<path fill="#EDB369" opacity="1.000000" stroke="none" 
	d="
M11.102778,21.202131 
	C12.461505,20.944267 13.777928,20.962507 15.486897,20.949070 
	C15.879439,20.917397 15.976549,21.392511 16.002121,21.632662 
	C14.671329,21.917204 13.314967,21.961596 11.554947,22.017719 
	C11.121018,21.845715 11.090748,21.661976 11.102778,21.202131 
z"/>
<path fill="#FFFEFE" opacity="1.000000" stroke="none" 
	d="
M37.160263,26.014324 
	C39.187290,25.574099 41.214317,25.133871 44.214100,24.482384 
	C43.310745,31.024401 42.627422,36.784710 41.590427,42.480629 
	C41.457123,43.212833 39.523502,43.973579 38.361332,44.088448 
	C35.893688,44.332355 33.384838,44.159439 30.425219,43.844460 
	C29.918463,43.351295 29.879370,43.171082 29.906441,42.615742 
	C30.421278,39.500023 30.869953,36.759430 31.463459,34.011593 
	C31.608290,34.004353 31.898428,33.987274 32.292877,34.143463 
	C32.792309,36.093216 32.462986,38.074486 33.132679,39.623978 
	C33.722649,40.989025 35.429020,41.871563 36.642391,42.967175 
	C37.404217,41.588142 38.872185,40.169640 38.797726,38.837349 
	C38.557884,34.545906 37.749462,30.286242 37.160263,26.014324 
z"/>
<path fill="#FE2C2C" opacity="1.000000" stroke="none" 
	d="
M36.929642,25.696880 
	C37.749462,30.286242 38.557884,34.545906 38.797726,38.837349 
	C38.872185,40.169640 37.404217,41.588142 36.642391,42.967175 
	C35.429020,41.871563 33.722649,40.989025 33.132679,39.623978 
	C32.462986,38.074486 32.792309,36.093216 32.211807,33.693817 
	C31.775694,30.676027 31.815105,28.264067 31.928604,25.711094 
	C32.002689,25.570080 32.036293,25.253279 32.036293,25.253279 
	C33.590534,25.295332 35.144779,25.337385 36.929642,25.696880 
z"/>
<path fill="#FDCB28" opacity="1.000000" stroke="none" 
	d="
M31.318630,34.018833 
	C30.869953,36.759430 30.421278,39.500023 29.507845,42.620422 
	C27.711296,42.958015 26.379503,42.915806 25.029894,42.458237 
	C24.919262,40.371929 24.826447,38.700981 24.833626,36.621323 
	C24.849119,34.822620 24.764616,33.432625 24.793034,31.663195 
	C24.942072,30.231930 24.978193,29.180101 25.014313,28.128277 
	C26.635643,27.124025 28.256973,26.119776 30.298676,25.276409 
	C30.719048,25.437292 30.951172,25.499825 30.828011,25.928474 
	C30.909443,28.911026 31.114037,31.464930 31.318630,34.018833 
z"/>
<path fill="#E28A18" opacity="1.000000" stroke="none" 
	d="
M11.982924,26.142168 
	C13.017673,26.096888 14.052421,26.051607 15.530524,26.484783 
	C15.959214,32.274590 15.944550,37.585941 15.532694,42.937004 
	C13.808399,42.973709 12.481296,42.970699 11.089773,42.507267 
	C11.344544,36.745285 11.663734,31.443727 11.982924,26.142168 
z"/>
<path fill="#FFFFFF" opacity="1.000000" stroke="none" 
	d="
M11.647036,25.972313 
	C11.663734,31.443727 11.344544,36.745285 10.971026,42.729599 
	C10.631612,43.558620 10.346525,43.704880 10.061440,43.851143 
	C8.680264,37.994373 7.299087,32.137604 5.651039,25.149187 
	C8.211754,25.444736 9.761450,25.623596 11.647036,25.972313 
z"/>
<path fill="#F8E2C7" opacity="1.000000" stroke="none" 
	d="
M15.929886,42.897289 
	C15.944550,37.585941 15.959214,32.274590 15.919340,26.501156 
	C16.261396,25.747992 16.657993,25.456915 17.333977,25.355022 
	C17.613361,25.544205 17.592556,25.949938 17.396763,26.304783 
	C17.149853,32.104839 17.098736,37.550056 16.766396,42.991165 
	C16.300079,42.957134 16.114983,42.927212 15.929886,42.897289 
z"/>
<path fill="#98CCEC" opacity="1.000000" stroke="none" 
	d="
M23.113249,27.042234 
	C23.429461,27.071205 23.692146,27.205147 23.965193,28.073757 
	C24.142820,29.815031 24.256563,30.926603 24.288452,32.449188 
	C24.223602,34.251846 24.240606,35.643497 24.236198,37.459656 
	C24.129776,39.580540 24.044762,41.276924 23.722679,42.997135 
	C23.485607,43.020966 23.010435,43.056942 22.947914,42.930679 
	C22.885395,42.804420 22.885460,42.522633 22.907364,42.102135 
	C22.946653,36.800892 22.964035,31.920149 23.014193,27.048622 
	C23.046968,27.057838 23.113249,27.042234 23.113249,27.042234 
z"/>
<path fill="#A4A4A4" opacity="1.000000" stroke="none" 
	d="
M15.532695,42.937004 
	C16.114983,42.927212 16.300079,42.957134 17.002567,43.005070 
	C17.519957,43.023083 17.992897,43.055859 18.000229,43.326302 
	C18.001322,43.776993 17.995081,43.957245 17.988840,44.137501 
	C15.492778,44.257023 12.996716,44.376545 10.281046,44.173603 
	C10.346525,43.704880 10.631612,43.558620 11.035444,43.190025 
	C12.481296,42.970699 13.808399,42.973709 15.532695,42.937004 
z"/>
<path fill="#A4A4A4" opacity="1.000000" stroke="none" 
	d="
M23.010435,43.056942 
	C23.010435,43.056942 23.485607,43.020966 23.997124,42.996391 
	C24.688330,42.939075 24.868021,42.906338 25.047712,42.873596 
	C26.379503,42.915806 27.711296,42.958015 29.441683,42.995544 
	C29.879370,43.171082 29.918463,43.351295 29.965225,43.808121 
	C27.830557,44.277622 25.688217,44.470516 23.269878,44.130074 
	C22.999397,43.416805 23.004917,43.236874 23.010435,43.056942 
z"/>
<path fill="#77ACCE" opacity="1.000000" stroke="none" 
	d="
M17.592556,25.949938 
	C17.592556,25.949938 17.613361,25.544205 17.596884,25.341209 
	C19.203444,25.218494 20.826483,25.298777 22.446180,25.710238 
	C22.442841,26.041416 21.997143,26.086163 21.623085,26.064112 
	C20.500742,26.056902 19.752455,26.071741 18.785753,26.059753 
	C18.567337,26.032927 18.127226,26.032225 17.994509,26.005478 
	C17.861792,25.978731 17.592556,25.949938 17.592556,25.949938 
z"/>
<path fill="#E0F0F9" opacity="1.000000" stroke="none" 
	d="
M22.947914,42.930679 
	C23.004917,43.236874 22.999397,43.416805 23.002457,43.867157 
	C21.615843,44.149105 20.220652,44.160629 18.407150,44.154823 
	C17.995081,43.957245 18.001322,43.776993 18.061386,43.201031 
	C18.115213,42.805321 18.113539,42.526520 18.504829,42.614822 
	C20.225901,42.642960 21.555681,42.582794 22.885460,42.522633 
	C22.885460,42.522633 22.885395,42.804420 22.947914,42.930679 
z"/>
<path fill="#7ABDE6" opacity="1.000000" stroke="none" 
	d="
M18.087631,21.924679 
	C17.672955,21.892576 17.786633,21.464355 17.841942,21.249840 
	C19.281513,21.029408 20.665777,21.023491 22.460621,21.023472 
	C21.414906,21.338509 19.958607,21.647646 18.087631,21.924679 
z"/>
<path fill="#F5E9C3" opacity="1.000000" stroke="none" 
	d="
M24.370304,32.038177 
	C24.256563,30.926603 24.142820,29.815031 24.058809,28.279034 
	C24.088541,27.854612 24.563908,27.948858 24.789110,28.038567 
	C24.978193,29.180101 24.942072,30.231930 24.716053,31.657867 
	C24.526152,32.031979 24.370304,32.038177 24.370304,32.038177 
z"/>
<path fill="#41A0DC" opacity="1.000000" stroke="none" 
	d="
M21.997143,26.086163 
	C21.997143,26.086163 22.442841,26.041416 22.665834,26.035591 
	C22.926735,26.198210 22.964642,26.366655 23.057899,26.788666 
	C23.113249,27.042234 23.046968,27.057838 22.806993,26.937469 
	C22.304384,26.630110 22.114426,26.386465 21.997143,26.086163 
z"/>
<path fill="#FFE593" opacity="1.000000" stroke="none" 
	d="
M30.951172,25.499825 
	C30.951172,25.499825 30.719048,25.437292 30.647465,25.338428 
	C30.819510,25.212790 31.063135,25.186018 31.671528,25.206263 
	C32.036293,25.253279 32.002689,25.570080 31.688362,25.661072 
	C31.374033,25.752062 30.951172,25.499825 30.951172,25.499825 
z"/>
<path fill="#FFFEFE" opacity="1.000000" stroke="none" 
	d="
M30.828011,25.928474 
	C30.951172,25.499825 31.374033,25.752062 31.614277,25.802086 
	C31.815105,28.264067 31.775694,30.676027 31.817356,33.537628 
	C31.898428,33.987274 31.608290,34.004353 31.463459,34.011593 
	C31.114037,31.464930 30.909443,28.911026 30.828011,25.928474 
z"/>
<path fill="#FEF3CF" opacity="1.000000" stroke="none" 
	d="
M25.029894,42.458237 
	C24.868021,42.906338 24.688330,42.939075 24.234196,42.972557 
	C24.044762,41.276924 24.129776,39.580540 24.354334,37.455902 
	C24.493879,37.027649 24.733633,37.030033 24.733633,37.030033 
	C24.826447,38.700981 24.919262,40.371929 25.029894,42.458237 
z"/>
<path fill="#FAEEC5" opacity="1.000000" stroke="none" 
	d="
M24.833626,36.621323 
	C24.733633,37.030033 24.493879,37.027649 24.375744,37.031399 
	C24.240606,35.643497 24.223602,34.251846 24.288452,32.449188 
	C24.370304,32.038177 24.526152,32.031979 24.603132,32.037308 
	C24.764616,33.432625 24.849119,34.822620 24.833626,36.621323 
z"/>
<path fill="#98CCEC" opacity="1.000000" stroke="none" 
	d="
M18.054054,42.930588 
	C17.992897,43.055859 17.519957,43.023083 17.283787,43.009178 
	C17.098736,37.550056 17.149853,32.104839 17.396763,26.304783 
	C17.592556,25.949938 17.861792,25.978731 17.966867,26.245468 
	C18.071943,26.512203 18.130732,26.992138 18.084492,27.456930 
	C18.063349,32.789989 18.088444,37.658253 18.113539,42.526520 
	C18.113539,42.526520 18.115213,42.805321 18.054054,42.930588 
z"/>
<path fill="#3398D7" opacity="1.000000" stroke="none" 
	d="
M18.504829,42.614822 
	C18.088444,37.658253 18.063349,32.789989 18.270905,27.349796 
	C18.736477,26.595285 18.903349,26.364857 19.004169,26.086582 
	C19.752455,26.071741 20.500742,26.056902 21.623085,26.064112 
	C22.114426,26.386465 22.304384,26.630110 22.774218,26.928253 
	C22.964035,31.920149 22.946653,36.800892 22.907364,42.102135 
	C21.555681,42.582794 20.225901,42.642960 18.504829,42.614822 
z"/>
<path fill="#41A0DC" opacity="1.000000" stroke="none" 
	d="
M18.785753,26.059753 
	C18.903349,26.364857 18.736477,26.595285 18.317142,26.885002 
	C18.130732,26.992138 18.071943,26.512203 18.099585,26.272213 
	C18.127226,26.032225 18.567337,26.032927 18.785753,26.059753 
z"/>
</svg>